<svg width="26" height="22" viewBox="0 0 26 22" fill="none" xmlns="http://www.w3.org/2000/svg">
<path d="M18.9091 0C16.4273 0 14.2693 1.10805 13 2.96493C11.7307 1.10805 9.57273 0 7.09091 0C5.21096 0.00216767 3.40863 0.742506 2.0793 2.05861C0.749968 3.37471 0.00218945 5.15911 0 7.02035C0 10.4369 2.15091 13.9927 6.39364 17.5872C8.33779 19.2273 10.4378 20.6771 12.6644 21.9164C12.7675 21.9713 12.8829 22 13 22C13.1171 22 13.2325 21.9713 13.3356 21.9164C15.5622 20.6771 17.6622 19.2273 19.6064 17.5872C23.8491 13.9927 26 10.4369 26 7.02035C25.9978 5.15911 25.25 3.37471 23.9207 2.05861C22.5914 0.742506 20.789 0.00216767 18.9091 0ZM13 20.4889C11.0606 19.3809 1.41818 13.5399 1.41818 7.02035C1.41975 5.5313 2.01791 4.10367 3.08141 3.05075C4.14492 1.99783 5.58689 1.40562 7.09091 1.40407C9.48764 1.40407 11.5003 2.67124 12.3441 4.71183C12.3975 4.84059 12.4884 4.95072 12.6052 5.02822C12.722 5.10573 12.8594 5.14711 13 5.14711C13.1406 5.14711 13.278 5.10573 13.3948 5.02822C13.5116 4.95072 13.6025 4.84059 13.6559 4.71183C14.4997 2.67124 16.5124 1.40407 18.9091 1.40407C20.4131 1.40562 21.8551 1.99783 22.9186 3.05075C23.9821 4.10367 24.5803 5.5313 24.5818 7.02035C24.5818 13.5399 14.9394 19.3809 13 20.4889Z" fill="black"/>
</svg>
